<svg width="7" height="12" viewBox="0 0 7 12" fill="none" xmlns="http://www.w3.org/2000/svg">
<path d="M5.95 0H1.05C0.470312 0 0 0.503906 0 1.125V10.875C0 11.4961 0.470312 12 1.05 12H5.95C6.52969 12 7 11.4961 7 10.875V1.125C7 0.503906 6.52969 0 5.95 0ZM3.5 11.25C3.11281 11.25 2.8 10.9148 2.8 10.5C2.8 10.0852 3.11281 9.75 3.5 9.75C3.88719 9.75 4.2 10.0852 4.2 10.5C4.2 10.9148 3.88719 11.25 3.5 11.25ZM5.95 8.71875C5.95 8.87344 5.83187 9 5.6875 9H1.3125C1.16812 9 1.05 8.87344 1.05 8.71875V1.40625C1.05 1.25156 1.16812 1.125 1.3125 1.125H5.6875C5.83187 1.125 5.95 1.25156 5.95 1.40625V8.71875Z" fill="white" fill-opacity="0.2"/>
</svg>
