<svg width="11" height="18" viewBox="0 0 11 18" fill="none" xmlns="http://www.w3.org/2000/svg">
<path d="M8.80356 0H1.55357C0.69587 0 0 0.716337 0 1.59926V15.4595C0 16.3425 0.69587 17.0588 1.55357 17.0588H8.80356C9.66126 17.0588 10.3571 16.3425 10.3571 15.4595V1.59926C10.3571 0.716337 9.66126 0 8.80356 0ZM5.17857 15.9926C4.60569 15.9926 4.14285 15.5162 4.14285 14.9265C4.14285 14.3367 4.60569 13.8603 5.17857 13.8603C5.75145 13.8603 6.21428 14.3367 6.21428 14.9265C6.21428 15.5162 5.75145 15.9926 5.17857 15.9926ZM8.80356 12.3943C8.80356 12.6142 8.62879 12.7941 8.41517 12.7941H1.94196C1.72835 12.7941 1.55357 12.6142 1.55357 12.3943V1.99908C1.55357 1.77918 1.72835 1.59926 1.94196 1.59926H8.41517C8.62879 1.59926 8.80356 1.77918 8.80356 1.99908V12.3943Z" fill="white"/>
<path d="M5.25341 4.27956L7.48278 5.1713C7.56948 5.20598 7.63883 5.31002 7.63883 5.40167V6.22407C7.63883 6.36031 7.52737 6.47177 7.39113 6.47177H2.9324C2.79616 6.47177 2.68469 6.36031 2.68469 6.22407V5.40167C2.68469 5.31002 2.75405 5.20598 2.84075 5.1713L5.07011 4.27956C5.11965 4.25975 5.20387 4.25975 5.25341 4.27956Z" stroke="white" stroke-width="0.5" stroke-miterlimit="10" stroke-linecap="round" stroke-linejoin="round"/>
<path d="M7.63883 9.19653H2.68469V8.45341C2.68469 8.31717 2.79616 8.2057 2.9324 8.2057H7.39113C7.52737 8.2057 7.63883 8.31717 7.63883 8.45341V9.19653Z" stroke="white" stroke-width="0.5" stroke-miterlimit="10" stroke-linecap="round" stroke-linejoin="round"/>
<path d="M3.18011 8.2057V6.47175" stroke="white" stroke-width="0.5" stroke-miterlimit="10" stroke-linecap="round" stroke-linejoin="round"/>
<path d="M4.1709 8.2057V6.47175" stroke="white" stroke-width="0.5" stroke-miterlimit="10" stroke-linecap="round" stroke-linejoin="round"/>
<path d="M5.1618 8.2057V6.47175" stroke="white" stroke-width="0.5" stroke-miterlimit="10" stroke-linecap="round" stroke-linejoin="round"/>
<path d="M6.15259 8.2057V6.47175" stroke="white" stroke-width="0.5" stroke-miterlimit="10" stroke-linecap="round" stroke-linejoin="round"/>
<path d="M7.14337 8.2057V6.47175" stroke="white" stroke-width="0.5" stroke-miterlimit="10" stroke-linecap="round" stroke-linejoin="round"/>
<path d="M2.43701 9.19653H7.88657" stroke="white" stroke-width="0.5" stroke-miterlimit="10" stroke-linecap="round" stroke-linejoin="round"/>
<path d="M5.16178 5.85248C5.36698 5.85248 5.53334 5.68613 5.53334 5.48092C5.53334 5.27571 5.36698 5.10936 5.16178 5.10936C4.95658 5.10936 4.79022 5.27571 4.79022 5.48092C4.79022 5.68613 4.95658 5.85248 5.16178 5.85248Z" stroke="white" stroke-width="0.5" stroke-miterlimit="10" stroke-linecap="round" stroke-linejoin="round"/>
</svg>
