<svg width="55" height="29" viewBox="0 0 55 29" fill="none" xmlns="http://www.w3.org/2000/svg">
<path opacity="0.5" d="M55 3.8147e-06L55 29L53.0664 29L53.0664 3.64566e-06L55 3.8147e-06ZM52.115 0.020622L52.115 29L51.1328 29L51.1328 0.0206219L52.115 0.020622ZM49.1992 0.0206217L49.1992 29L48.2478 29L48.2478 0.0206217L49.1992 0.0206217ZM44.3806 0.0206213L44.3806 29L43.4292 29L43.4292 0.0206212L44.3806 0.0206213ZM40.5134 0.020621L40.5134 29L38.6105 29L38.6105 0.0206208L40.5134 0.020621ZM35.6948 0.0206206L35.6948 29L34.7433 29L34.7434 0.0206205L35.6948 0.0206206ZM33.7612 0.0206204L33.7612 29L32.8098 29L32.8098 0.0206203L33.7612 0.0206204ZM31.8276 0.0206202L31.8276 29L30.8762 29L30.8762 0.0206201L31.8276 0.0206202ZM27.991 0.0206199L27.991 29L26.0574 29L26.0574 0.0206197L27.991 0.0206199ZM23.1724 0.0206195L23.1724 29L21.2388 29L21.2388 0.0206193L23.1724 0.0206195ZM19.3053 0.0206191L19.3053 29L17.3716 29L17.3716 0.020619L19.3053 0.0206191ZM15.438 0.0206188L15.438 29L13.5043 29L13.5043 0.0206186L15.438 0.0206188ZM12.553 0.0206185L12.553 29L10.6194 29L10.6194 0.0206184L12.553 0.0206185ZM7.70365 0.0206181L7.70365 29L4.81862 29L4.81862 0.0206179L7.70365 0.0206181ZM3.86719 0.0206178L3.86718 29L2.88503 29L2.88503 0.0206177L3.86719 0.0206178ZM1.93359 -8.24516e-07L1.93359 29L-3.8147e-06 29L-1.27944e-06 -9.93556e-07L1.93359 -8.24516e-07Z" fill="#373636"/>
</svg>
