<svg width="11" height="12" viewBox="0 0 11 12" fill="none" xmlns="http://www.w3.org/2000/svg">
<path d="M7.95199 1.33592V0.433739C7.95199 0.196628 7.75536 0 7.51825 0C7.28114 0 7.08451 0.196628 7.08451 0.433739V1.30122H3.32546V0.433739C3.32546 0.196628 3.12883 0 2.89172 0C2.65461 0 2.45798 0.196628 2.45798 0.433739V1.33592C0.896519 1.4805 0.138921 2.41159 0.0232577 3.79377C0.0116913 3.96148 0.150488 4.10028 0.312417 4.10028H10.0976C10.2653 4.10028 10.4041 3.9557 10.3867 3.79377C10.2711 2.41159 9.51345 1.4805 7.95199 1.33592Z" fill="#898989"/>
<path d="M9.83142 4.96767H0.578319C0.260243 4.96767 0 5.22789 0 5.54596V9.10841C0 10.8434 0.867478 12 2.89159 12H7.51814C9.54226 12 10.4097 10.8434 10.4097 9.10841V5.54596C10.4097 5.22789 10.1495 4.96767 9.83142 4.96767ZM3.59136 9.80817C3.56244 9.83131 3.53353 9.86022 3.50461 9.87757C3.46991 9.9007 3.43521 9.91805 3.40051 9.92962C3.36582 9.94697 3.33112 9.95853 3.29642 9.96432C3.25593 9.9701 3.22124 9.97588 3.18075 9.97588C3.10557 9.97588 3.03039 9.95854 2.96099 9.92962C2.88581 9.9007 2.82798 9.86022 2.77015 9.80817C2.66605 9.69829 2.60243 9.54793 2.60243 9.39757C2.60243 9.2472 2.66605 9.09684 2.77015 8.98696C2.82798 8.93491 2.88581 8.89443 2.96099 8.86551C3.06509 8.81925 3.18075 8.80768 3.29642 8.83081C3.33112 8.8366 3.36582 8.84816 3.40051 8.86551C3.43521 8.87708 3.46991 8.89443 3.50461 8.91756C3.53353 8.94069 3.56244 8.96383 3.59136 8.98696C3.69546 9.09684 3.75907 9.2472 3.75907 9.39757C3.75907 9.54793 3.69546 9.69829 3.59136 9.80817ZM3.59136 7.78406C3.48148 7.88815 3.33112 7.95177 3.18075 7.95177C3.03039 7.95177 2.88003 7.88815 2.77015 7.78406C2.66605 7.67418 2.60243 7.52381 2.60243 7.37345C2.60243 7.22309 2.66605 7.07272 2.77015 6.96284C2.93208 6.80091 3.18654 6.74887 3.40051 6.8414C3.4757 6.87031 3.53931 6.91079 3.59136 6.96284C3.69546 7.07272 3.75907 7.22309 3.75907 7.37345C3.75907 7.52381 3.69546 7.67418 3.59136 7.78406ZM5.61548 9.80817C5.5056 9.91227 5.35523 9.97588 5.20487 9.97588C5.05451 9.97588 4.90414 9.91227 4.79426 9.80817C4.69017 9.69829 4.62655 9.54793 4.62655 9.39757C4.62655 9.2472 4.69017 9.09684 4.79426 8.98696C5.00824 8.77298 5.4015 8.77298 5.61548 8.98696C5.71957 9.09684 5.78319 9.2472 5.78319 9.39757C5.78319 9.54793 5.71957 9.69829 5.61548 9.80817ZM5.61548 7.78406C5.58656 7.80719 5.55764 7.83032 5.52873 7.85345C5.49403 7.87659 5.45933 7.89394 5.42463 7.9055C5.38993 7.92285 5.35523 7.93442 5.32053 7.9402C5.28005 7.94599 5.24535 7.95177 5.20487 7.95177C5.05451 7.95177 4.90414 7.88815 4.79426 7.78406C4.69017 7.67418 4.62655 7.52381 4.62655 7.37345C4.62655 7.22309 4.69017 7.07272 4.79426 6.96284C4.84631 6.91079 4.90993 6.87031 4.98511 6.8414C5.19909 6.74887 5.45355 6.80091 5.61548 6.96284C5.71957 7.07272 5.78319 7.22309 5.78319 7.37345C5.78319 7.52381 5.71957 7.67418 5.61548 7.78406ZM7.63959 9.80817C7.52971 9.91227 7.37935 9.97588 7.22899 9.97588C7.07862 9.97588 6.92826 9.91227 6.81838 9.80817C6.71428 9.69829 6.65067 9.54793 6.65067 9.39757C6.65067 9.2472 6.71428 9.09684 6.81838 8.98696C7.03236 8.77298 7.42561 8.77298 7.63959 8.98696C7.74369 9.09684 7.8073 9.2472 7.8073 9.39757C7.8073 9.54793 7.74369 9.69829 7.63959 9.80817ZM7.63959 7.78406C7.61068 7.80719 7.58176 7.83032 7.55284 7.85345C7.51814 7.87659 7.48345 7.89394 7.44875 7.9055C7.41405 7.92285 7.37935 7.93442 7.34465 7.9402C7.30417 7.94599 7.26368 7.95177 7.22899 7.95177C7.07862 7.95177 6.92826 7.88815 6.81838 7.78406C6.71428 7.67418 6.65067 7.52381 6.65067 7.37345C6.65067 7.22309 6.71428 7.07272 6.81838 6.96284C6.87621 6.91079 6.93404 6.87031 7.00922 6.8414C7.11332 6.79513 7.22899 6.78356 7.34465 6.8067C7.37935 6.81248 7.41405 6.82405 7.44875 6.8414C7.48345 6.85296 7.51814 6.87031 7.55284 6.89345L7.63959 6.96284C7.74369 7.07272 7.8073 7.22309 7.8073 7.37345C7.8073 7.52381 7.74369 7.67418 7.63959 7.78406Z" fill="#898989"/>
</svg>
