<svg width="14" height="10" viewBox="0 0 14 10" fill="none" xmlns="http://www.w3.org/2000/svg">
<path d="M0 8.92857C0 9.52009 0.522569 10 1.16667 10H12.8333C13.4774 10 14 9.52009 14 8.92857V5H0V8.92857ZM4.66667 7.41071C4.66667 7.26339 4.79792 7.14286 4.95833 7.14286H8.26389C8.42431 7.14286 8.55556 7.26339 8.55556 7.41071V8.30357C8.55556 8.45089 8.42431 8.57143 8.26389 8.57143H4.95833C4.79792 8.57143 4.66667 8.45089 4.66667 8.30357V7.41071ZM1.55556 7.41071C1.55556 7.26339 1.68681 7.14286 1.84722 7.14286H3.59722C3.75764 7.14286 3.88889 7.26339 3.88889 7.41071V8.30357C3.88889 8.45089 3.75764 8.57143 3.59722 8.57143H1.84722C1.68681 8.57143 1.55556 8.45089 1.55556 8.30357V7.41071ZM14 1.07143V2.14286H0V1.07143C0 0.479911 0.522569 0 1.16667 0H12.8333C13.4774 0 14 0.479911 14 1.07143Z" fill="white"/>
</svg>
