<svg width="11" height="7" viewBox="0 0 11 7" fill="none" xmlns="http://www.w3.org/2000/svg">
<path d="M0 6.25C0 6.66406 0.41059 7 0.916667 7H10.0833C10.5894 7 11 6.66406 11 6.25V3.5H0V6.25ZM3.66667 5.1875C3.66667 5.08437 3.76979 5 3.89583 5H6.49306C6.6191 5 6.72222 5.08437 6.72222 5.1875V5.8125C6.72222 5.91563 6.6191 6 6.49306 6H3.89583C3.76979 6 3.66667 5.91563 3.66667 5.8125V5.1875ZM1.22222 5.1875C1.22222 5.08437 1.32535 5 1.45139 5H2.82639C2.95243 5 3.05556 5.08437 3.05556 5.1875V5.8125C3.05556 5.91563 2.95243 6 2.82639 6H1.45139C1.32535 6 1.22222 5.91563 1.22222 5.8125V5.1875ZM11 0.75V1.5H0V0.75C0 0.335938 0.41059 0 0.916667 0H10.0833C10.5894 0 11 0.335938 11 0.75Z" fill="white" fill-opacity="0.4"/>
</svg>
