<svg width="15" height="9" viewBox="0 0 15 9" fill="none" xmlns="http://www.w3.org/2000/svg">
<path d="M14.5582 0.451205C13.6491 0.124353 12.7393 2.41626e-08 11.8299 2.41626e-08C8.94314 -0.000200869 6.05662 1.25237 3.16987 1.25237C2.4459 1.25237 1.72239 1.17362 0.998422 0.976741C0.917095 0.954643 0.835534 0.944196 0.755848 0.944196C0.352495 0.944196 0 1.21179 0 1.58324V7.95676C0 8.21049 0.16945 8.45096 0.441556 8.54859C1.35068 8.87565 2.26051 9 3.16987 9C6.05662 9 8.94338 7.74743 11.8301 7.74743C12.5541 7.74743 13.2776 7.82618 14.0016 8.02306C14.0829 8.04516 14.1645 8.0556 14.2442 8.0556C14.6475 8.0556 15 7.78801 15 7.41656V1.04324C14.9998 0.789308 14.8303 0.54904 14.5582 0.451205ZM1.12498 2.01335C1.59654 2.1146 2.08872 2.16542 2.59496 2.19275C2.45715 2.78317 1.85153 3.22815 1.12498 3.22815V2.01335ZM1.12498 7.73879V6.77893C1.93052 6.77893 2.5823 7.32676 2.61816 8.01241C2.09012 7.97605 1.59654 7.88565 1.12498 7.73879ZM7.49988 6.42857C6.4642 6.42857 5.62491 5.56493 5.62491 4.5C5.62491 3.43487 6.46443 2.57143 7.49988 2.57143C8.53534 2.57143 9.37485 3.43487 9.37485 4.5C9.37485 5.56533 8.5351 6.42857 7.49988 6.42857ZM13.8748 6.98665C13.4642 6.89846 13.0378 6.84904 12.6017 6.8171C12.7393 6.29317 13.2462 5.8954 13.8748 5.8271V6.98665ZM13.8748 2.24337C13.1508 2.16482 12.589 1.64672 12.5668 1.00688C13.0247 1.05047 13.4595 1.13203 13.8748 1.26121V2.24337Z" fill="#0BDA5E"/>
</svg>
