<svg width="23" height="22" viewBox="0 0 23 22" fill="none" xmlns="http://www.w3.org/2000/svg">
<path d="M11.5 0C5.439 0 0.5 4.939 0.5 11C0.5 17.061 5.439 22 11.5 22C17.561 22 22.5 17.061 22.5 11C22.5 4.939 17.561 0 11.5 0ZM15.196 13.53C15.515 13.849 15.515 14.377 15.196 14.696C15.031 14.861 14.822 14.938 14.613 14.938C14.404 14.938 14.195 14.861 14.03 14.696L11.5 12.166L8.97 14.696C8.805 14.861 8.596 14.938 8.387 14.938C8.178 14.938 7.969 14.861 7.804 14.696C7.485 14.377 7.485 13.849 7.804 13.53L10.334 11L7.804 8.47C7.485 8.151 7.485 7.623 7.804 7.304C8.123 6.985 8.651 6.985 8.97 7.304L11.5 9.834L14.03 7.304C14.349 6.985 14.877 6.985 15.196 7.304C15.515 7.623 15.515 8.151 15.196 8.47L12.666 11L15.196 13.53Z" fill="#414450"/>
</svg>
