<svg width="107" height="106" viewBox="0 0 107 106" fill="none" xmlns="http://www.w3.org/2000/svg">
<path d="M82.7901 46.3853C80.511 46.3853 78.7089 44.5302 78.7089 42.3039C78.7089 40.3428 76.7478 36.2616 73.4617 32.7105C70.2285 29.2653 66.6774 27.2512 63.7092 27.2512C61.4301 27.2512 59.6281 25.3961 59.6281 23.17C59.6281 20.9439 61.4831 19.0889 63.7092 19.0889C69.0095 19.0889 74.5747 21.951 79.4509 27.0922C84.0091 31.9154 86.9243 37.9047 86.9243 42.2509C86.9243 44.5302 85.0692 46.3853 82.7901 46.3853Z" fill="#2B77C2"/>
<path d="M101.923 46.3771C99.6436 46.3771 97.8415 44.522 97.8415 42.2959C97.8415 23.48 82.5238 8.21537 63.761 8.21537C61.4819 8.21537 59.6798 6.36028 59.6798 4.13418C59.6798 1.90809 61.4819 0 63.708 0C87.029 0 106.004 18.9748 106.004 42.2959C106.004 44.522 104.149 46.3771 101.923 46.3771Z" fill="#2B77C2"/>
<path d="M47.9671 68.6381L38.1617 78.4435C36.0946 80.5106 32.8085 80.5106 30.6884 78.4965C30.1053 77.9135 29.5223 77.3835 28.9393 76.8004C23.48 71.2882 18.5508 65.5109 14.1516 59.4687C9.80544 53.4264 6.30728 47.3841 3.76317 41.3949C1.27206 35.3526 0 29.5753 0 24.0631C0 20.4589 0.636028 17.0138 1.90808 13.8336C3.18014 10.6005 5.19423 7.63234 8.00336 4.98222C11.3955 1.64307 15.1057 0 19.0278 0C20.5119 0 21.996 0.318015 23.321 0.954043C24.6991 1.59007 25.9182 2.54411 26.8722 3.92218L39.1687 21.254C40.1228 22.579 40.8118 23.7981 41.2888 24.9641C41.7659 26.0772 42.0309 27.1902 42.0309 28.1973C42.0309 29.4693 41.6599 30.7414 40.9178 31.9604C40.2288 33.1795 39.2217 34.4515 37.9497 35.7236L33.9215 39.9108C33.3385 40.4938 33.0735 41.1828 33.0735 42.0309C33.0735 42.4549 33.1265 42.8259 33.2325 43.2499C33.3915 43.674 33.5505 43.992 33.6565 44.31C34.6105 46.0591 36.2536 48.3382 38.5857 51.0943C40.9708 53.8504 43.5149 56.6595 46.2711 59.4687C46.8011 59.9987 47.3841 60.5287 47.9141 61.0587C50.0342 63.1258 50.0872 66.518 47.9671 68.6381Z" fill="#3C4652"/>
<path d="M105.844 86.5481C105.844 88.0321 105.579 89.5692 105.049 91.0533C104.89 91.4773 104.731 91.9013 104.519 92.3253C103.618 94.2334 102.451 96.0355 100.914 97.7316C98.3173 100.594 95.4552 102.661 92.222 103.986C92.169 103.986 92.116 104.039 92.063 104.039C88.9359 105.311 85.5437 106 81.8866 106C76.4803 106 70.7031 104.728 64.6078 102.131C58.5125 99.5337 52.4173 96.0355 46.375 91.6363C44.3079 90.0992 42.2409 88.5622 40.2798 86.9191L57.6115 69.5873C59.0956 70.7004 60.4206 71.5484 61.5337 72.1314C61.7987 72.2374 62.1167 72.3964 62.4877 72.5555C62.9117 72.7145 63.3358 72.7675 63.8128 72.7675C64.7138 72.7675 65.4028 72.4494 65.9859 71.8664L70.0141 67.8912C71.3391 66.5662 72.6112 65.5591 73.8302 64.9231C75.0493 64.1811 76.2683 63.8101 77.5934 63.8101C78.6004 63.8101 79.6605 64.0221 80.8265 64.4991C81.9926 64.9761 83.2116 65.6651 84.5367 66.5662L102.08 79.0217C103.459 79.9758 104.413 81.0888 104.996 82.4139C105.526 83.739 105.844 85.064 105.844 86.5481Z" fill="#3C4652"/>
</svg>
