<svg width="25" height="25" viewBox="0 0 25 25" fill="none" xmlns="http://www.w3.org/2000/svg">
<path d="M19.526 10.9399C18.9885 10.9399 18.5634 10.5024 18.5634 9.97734C18.5634 9.51482 18.1009 8.55227 17.3259 7.71473C16.5633 6.9022 15.7258 6.42717 15.0258 6.42717C14.4883 6.42717 14.0632 5.98965 14.0632 5.46463C14.0632 4.9396 14.5008 4.50208 15.0258 4.50208C16.2758 4.50208 17.5884 5.17711 18.7385 6.38967C19.8135 7.52722 20.501 8.93979 20.501 9.96484C20.501 10.5024 20.0635 10.9399 19.526 10.9399Z" fill="#1D1D1F"/>
<path d="M24.0384 10.938C23.5009 10.938 23.0759 10.5005 23.0759 9.97547C23.0759 5.53776 19.4632 1.93759 15.038 1.93759C14.5005 1.93759 14.0754 1.50007 14.0754 0.975046C14.0754 0.450021 14.5005 0 15.0255 0C20.5257 0 25.001 4.47521 25.001 9.97547C25.001 10.5005 24.5634 10.938 24.0384 10.938Z" fill="#1D1D1F"/>
<path d="M11.313 16.1883L9.00042 18.5009C8.5129 18.9884 7.73786 18.9884 7.23784 18.5134C7.10033 18.3759 6.96283 18.2509 6.82532 18.1133C5.53776 16.8133 4.3752 15.4507 3.33766 14.0257C2.31261 12.6006 1.48757 11.1755 0.887542 9.76296C0.300014 8.33789 0 6.97533 0 5.67527C0 4.82523 0.150007 4.01269 0.450021 3.26265C0.750035 2.50012 1.22506 1.80008 1.88759 1.17506C2.68763 0.387518 3.56267 0 4.48771 0C4.83773 0 5.18774 0.0750036 5.50026 0.225011C5.82527 0.375018 6.11279 0.600028 6.3378 0.925043L9.23793 5.01273C9.46294 5.32525 9.62545 5.61276 9.73796 5.88778C9.85046 6.15029 9.91296 6.4128 9.91296 6.65031C9.91296 6.95033 9.82546 7.25034 9.65045 7.53785C9.48794 7.82537 9.25043 8.12538 8.95042 8.42539L8.00037 9.41294C7.86287 9.55045 7.80036 9.71296 7.80036 9.91296C7.80036 10.013 7.81287 10.1005 7.83787 10.2005C7.87537 10.3005 7.91287 10.3755 7.93787 10.4505C8.16288 10.863 8.5504 11.4005 9.10043 12.0506C9.66295 12.7006 10.263 13.3631 10.913 14.0257C11.038 14.1507 11.1755 14.2757 11.3005 14.4007C11.8006 14.8882 11.8131 15.6882 11.313 16.1883Z" fill="#1D1D1F"/>
<path d="M24.9632 20.4123C24.9632 20.7624 24.9007 21.1249 24.7757 21.4749C24.7382 21.5749 24.7007 21.6749 24.6507 21.7749C24.4382 22.2249 24.1632 22.6499 23.8007 23.05C23.1881 23.725 22.5131 24.2125 21.7506 24.525C21.7381 24.525 21.7256 24.5375 21.7131 24.5375C20.9755 24.8375 20.1755 25 19.3129 25C18.0379 25 16.6753 24.7 15.2378 24.0875C13.8002 23.475 12.3626 22.6499 10.9376 21.6124C10.45 21.2499 9.96252 20.8874 9.5 20.4998L13.5877 16.4121C13.9377 16.6747 14.2502 16.8747 14.5127 17.0122C14.5752 17.0372 14.6502 17.0747 14.7377 17.1122C14.8377 17.1497 14.9377 17.1622 15.0502 17.1622C15.2628 17.1622 15.4253 17.0872 15.5628 16.9497L16.5128 16.0121C16.8253 15.6996 17.1253 15.4621 17.4129 15.3121C17.7004 15.1371 17.9879 15.0496 18.3004 15.0496C18.5379 15.0496 18.7879 15.0996 19.0629 15.2121C19.3379 15.3246 19.6255 15.4871 19.938 15.6996L24.0757 18.6373C24.4007 18.8623 24.6257 19.1248 24.7632 19.4373C24.8882 19.7498 24.9632 20.0623 24.9632 20.4123Z" fill="#1D1D1F"/>
</svg>
