<svg width="28" height="19" viewBox="0 0 28 19" fill="none" xmlns="http://www.w3.org/2000/svg">
<path d="M0 16.9643C0 18.0882 1.04514 19 2.33333 19H25.6667C26.9549 19 28 18.0882 28 16.9643V9.5H0V16.9643ZM9.33333 14.0804C9.33333 13.8004 9.59583 13.5714 9.91667 13.5714H16.5278C16.8486 13.5714 17.1111 13.8004 17.1111 14.0804V15.7768C17.1111 16.0567 16.8486 16.2857 16.5278 16.2857H9.91667C9.59583 16.2857 9.33333 16.0567 9.33333 15.7768V14.0804ZM3.11111 14.0804C3.11111 13.8004 3.37361 13.5714 3.69444 13.5714H7.19444C7.51528 13.5714 7.77778 13.8004 7.77778 14.0804V15.7768C7.77778 16.0567 7.51528 16.2857 7.19444 16.2857H3.69444C3.37361 16.2857 3.11111 16.0567 3.11111 15.7768V14.0804ZM28 2.03571V4.07143H0V2.03571C0 0.91183 1.04514 0 2.33333 0H25.6667C26.9549 0 28 0.91183 28 2.03571Z" fill="white"/>
</svg>


