<svg width="16" height="16" viewBox="0 0 16 16" fill="none" xmlns="http://www.w3.org/2000/svg">
<path d="M14.7012 4.07811C14.6863 4.07811 14.664 4.07811 14.6417 4.07811C10.705 3.6837 6.77568 3.53486 2.88358 3.92928L1.36545 4.07811C1.05289 4.10788 0.777547 3.88463 0.74778 3.57207C0.718012 3.25951 0.941267 2.99161 1.24638 2.96184L2.76451 2.813C6.72358 2.41115 10.7347 2.56742 14.7533 2.96184C15.0584 2.99161 15.2817 3.26696 15.2519 3.57207C15.2296 3.8623 14.984 4.07811 14.7012 4.07811Z" fill="white"/>
<path d="M5.40049 3.32649C5.37072 3.32649 5.34095 3.32649 5.30374 3.31905C5.00607 3.26696 4.7977 2.97673 4.84979 2.67906L5.01351 1.70418C5.13258 0.989762 5.2963 0 7.03021 0H8.97997C10.7214 0 10.8851 1.02697 10.9967 1.71162L11.1604 2.67906C11.2125 2.98417 11.0041 3.2744 10.7065 3.31905C10.4014 3.37115 10.1111 3.16277 10.0665 2.8651L9.90276 1.89766C9.79857 1.25023 9.77625 1.12371 8.98741 1.12371H7.03766C6.24885 1.12371 6.23397 1.2279 6.12234 1.89022L5.95118 2.85766C5.90653 3.13301 5.66839 3.32649 5.40049 3.32649Z" fill="white"/>
<path d="M10.3927 16.0001H5.61509C3.01789 16.0001 2.91371 14.5639 2.83185 13.4029L2.34813 5.90901C2.32581 5.60389 2.56394 5.336 2.86906 5.31367C3.18161 5.29879 3.44208 5.52948 3.4644 5.8346L3.94812 13.3285C4.02998 14.4597 4.05975 14.8839 5.61509 14.8839H10.3927C11.9555 14.8839 11.9853 14.4597 12.0597 13.3285L12.5434 5.8346C12.5658 5.52948 12.8337 5.29879 13.1388 5.31367C13.4439 5.336 13.682 5.59645 13.6597 5.90901L13.176 13.4029C13.0941 14.5639 12.9899 16.0001 10.3927 16.0001Z" fill="white"/>
<path d="M9.2394 11.9068H6.76128C6.45615 11.9068 6.20312 11.6538 6.20312 11.3487C6.20312 11.0435 6.45615 10.7905 6.76128 10.7905H9.2394C9.54452 10.7905 9.79754 11.0435 9.79754 11.3487C9.79754 11.6538 9.54452 11.9068 9.2394 11.9068Z" fill="white"/>
<path d="M9.86401 8.93024H6.1431C5.83798 8.93024 5.58496 8.67722 5.58496 8.3721C5.58496 8.06699 5.83798 7.81396 6.1431 7.81396H9.86401C10.1691 7.81396 10.4221 8.06699 10.4221 8.3721C10.4221 8.67722 10.1691 8.93024 9.86401 8.93024Z" fill="white"/>
</svg>
