<svg width="23" height="26" viewBox="0 0 23 26" fill="none" xmlns="http://www.w3.org/2000/svg">
<path d="M22.1844 4.69059C20.2869 4.50202 18.3895 4.3606 16.4802 4.25453V4.24274L16.221 2.71064C16.0442 1.62638 15.7849 0 13.0271 0H9.93934C7.19331 0 6.93403 1.55567 6.74546 2.69886L6.49797 4.20739C5.40193 4.2781 4.30588 4.34881 3.20984 4.45488L0.805621 4.69059C0.310634 4.73773 -0.0429277 5.17379 0.00421389 5.65699C0.0513555 6.14019 0.47563 6.49375 0.970617 6.44661L3.37484 6.21091C9.55042 5.59806 15.7731 5.83377 22.0194 6.4584H22.1137C22.5615 6.4584 22.9504 6.11662 22.9976 5.65699C23.0329 5.17379 22.6794 4.73773 22.1844 4.69059Z" fill="#D90A0A"/>
<path d="M20.0165 8.12028C19.7336 7.82564 19.3447 7.66064 18.944 7.66064H4.04733C3.64662 7.66064 3.24592 7.82564 2.97486 8.12028C2.70379 8.41491 2.55058 8.81561 2.57415 9.2281L3.30485 21.3199C3.43449 23.1113 3.59948 25.3505 7.71259 25.3505H15.2788C19.3919 25.3505 19.557 23.1231 19.6865 21.3199L20.4172 9.23989C20.4408 8.81561 20.2875 8.41491 20.0165 8.12028ZM13.452 19.446H9.52748C9.04434 19.446 8.64363 19.0453 8.64363 18.5621C8.64363 18.0789 9.04434 17.6782 9.52748 17.6782H13.452C13.9352 17.6782 14.3359 18.0789 14.3359 18.5621C14.3359 19.0453 13.9352 19.446 13.452 19.446ZM14.442 14.7319H8.54935C8.06615 14.7319 7.66545 14.3312 7.66545 13.848C7.66545 13.3648 8.06615 12.9641 8.54935 12.9641H14.442C14.9252 12.9641 15.3259 13.3648 15.3259 13.848C15.3259 14.3312 14.9252 14.7319 14.442 14.7319Z" fill="#D90A0A"/>
</svg>
