<svg width="28" height="30" viewBox="0 0 28 30" fill="none" xmlns="http://www.w3.org/2000/svg">
<path d="M13.5912 17.9421C6.10034 17.9421 0 22.9659 0 29.156C0 29.5746 0.32894 29.9036 0.74759 29.9036H26.4348C26.8535 29.9036 27.1824 29.5746 27.1824 29.156C27.1824 22.9659 21.0821 17.9421 13.5912 17.9421Z" fill="white"/>
<path d="M13.5909 0C11.8266 0 10.2118 0.613024 8.92593 1.6447C7.20647 3.00531 6.11499 5.11352 6.11499 7.4759C6.11499 8.88137 6.50374 10.1971 7.20647 11.3185C8.49233 13.4865 10.8547 14.9518 13.5909 14.9518C15.4748 14.9518 17.1943 14.264 18.51 13.0828C19.0932 12.5894 19.6015 11.9913 19.9903 11.3185C20.678 10.1971 21.0668 8.88137 21.0668 7.4759C21.0668 3.3492 17.7176 0 13.5909 0ZM17.4634 6.6685L13.4713 10.3466C13.2021 10.6008 12.8583 10.7204 12.5144 10.7204C12.1555 10.7204 11.7967 10.5859 11.5275 10.3167L9.68847 8.46272C9.13525 7.9095 9.13525 7.02735 9.68847 6.47413C10.2417 5.92091 11.1238 5.92091 11.6771 6.47413L12.5592 7.35629L15.5645 4.5902C16.1327 4.06689 17.0149 4.09679 17.5382 4.66496C18.0615 5.24808 18.0316 6.14519 17.4634 6.6685Z" fill="white"/>
</svg>
