<svg width="21" height="24" viewBox="0 0 21 24" fill="none" xmlns="http://www.w3.org/2000/svg">
<path d="M6.52769 6.99491L9.25278 8.62117C9.72747 8.90247 10.1143 9.57935 10.1143 10.1332L10.1143 13.7373" stroke="#FFFFFF" stroke-linecap="round" stroke-linejoin="round"/>
<path d="M17.7542 12.9616C17.7542 12.9616 18.5811 11.7683 18.5811 9.79044C18.5811 4.93802 14.6429 0.999822 9.79044 0.999822C4.93802 0.999821 0.999824 4.93802 0.999823 9.79044C0.999823 14.6429 4.93802 18.5811 9.79044 18.5811" stroke="#FFFFFF" stroke-linecap="round" stroke-linejoin="round"/>
<path d="M19.6797 15.5478L16.6611 13.8047C16.1682 13.5202 15.5584 13.5202 15.0604 13.8047L12.0469 15.5478C11.5539 15.8324 11.249 16.3609 11.249 16.9351V20.4111C11.249 20.9802 11.5539 21.5087 12.0469 21.7984L15.0654 23.5415C15.5584 23.826 16.1682 23.826 16.6662 23.5415L19.6848 21.7984C20.1777 21.5138 20.4826 20.9853 20.4826 20.4111V16.9351C20.4776 16.3609 20.1726 15.8375 19.6797 15.5478ZM15.4822 16.5133C15.4822 16.305 15.6549 16.1322 15.8633 16.1322C16.0716 16.1322 16.2444 16.305 16.2444 16.5133V19.1813C16.2444 19.3896 16.0716 19.5624 15.8633 19.5624C15.6549 19.5624 15.4822 19.3896 15.4822 19.1813V16.5133ZM16.3308 21.026C16.3054 21.087 16.2698 21.1429 16.2241 21.1937C16.1275 21.2902 16.0005 21.3411 15.8633 21.3411C15.7972 21.3411 15.7312 21.3258 15.6702 21.3004C15.6041 21.275 15.5533 21.2394 15.5025 21.1937C15.4567 21.1429 15.4212 21.087 15.3907 21.026C15.3653 20.965 15.3551 20.8989 15.3551 20.8329C15.3551 20.7007 15.4059 20.5686 15.5025 20.4721C15.5533 20.4263 15.6041 20.3908 15.6702 20.3653C15.8582 20.284 16.0818 20.3298 16.2241 20.4721C16.2698 20.5229 16.3054 20.5737 16.3308 20.6398C16.3562 20.7007 16.3715 20.7668 16.3715 20.8329C16.3715 20.8989 16.3562 20.965 16.3308 21.026Z" fill="#FFFFFF"/>
</svg>
