<svg width="20" height="22" viewBox="0 0 20 22" fill="none" xmlns="http://www.w3.org/2000/svg">
<path d="M18.7474 13.3515C18.7474 14.2137 18.5052 15.0275 18.079 15.725C17.2846 17.0618 15.8218 17.9531 14.1459 17.9531C12.4699 17.9531 11.0071 17.0522 10.2127 15.725C9.7865 15.0372 9.54431 14.2137 9.54431 13.3515C9.54431 10.8134 11.6077 8.74998 14.1459 8.74998C16.684 8.74998 18.7474 10.8134 18.7474 13.3515Z" stroke="#373636" stroke-width="1.5" stroke-miterlimit="10" stroke-linecap="round" stroke-linejoin="round"/>
<path d="M15.8703 13.3322H12.4312" stroke="#373636" stroke-width="1.5" stroke-miterlimit="10" stroke-linecap="round" stroke-linejoin="round"/>
<path d="M14.1459 11.6562V15.0953" stroke="#373636" stroke-width="1.5" stroke-miterlimit="10" stroke-linecap="round" stroke-linejoin="round"/>
<path d="M17.8369 2.95689V5.10748C17.8369 5.89217 17.3428 6.87062 16.8584 7.36469L15.1534 8.86623C14.8338 8.78873 14.4947 8.74998 14.146 8.74998C11.6078 8.74998 9.5444 10.8134 9.5444 13.3515C9.5444 14.2137 9.78658 15.0275 10.2128 15.725C10.5713 16.3256 11.0653 16.839 11.666 17.2072V17.5365C11.666 18.1275 11.2785 18.9122 10.7844 19.2028L9.41846 20.0843C8.1494 20.869 6.38624 19.9875 6.38624 18.4181V13.2353C6.38624 12.5475 5.98905 11.6659 5.60155 11.1815L1.88156 7.26777C1.39719 6.77371 1 5.89219 1 5.31094V3.05375C1 1.88156 1.88156 1 2.95687 1H15.88C16.9553 1 17.8369 1.88158 17.8369 2.95689Z" stroke="#373636" stroke-width="1.5" stroke-miterlimit="10" stroke-linecap="round" stroke-linejoin="round"/>
</svg>
