<svg width="27" height="10" viewBox="0 0 27 10" fill="none" xmlns="http://www.w3.org/2000/svg">
<path d="M26.0357 6.28571H0.964286C0.708541 6.28571 0.463271 6.3685 0.282433 6.51585C0.101594 6.6632 0 6.86304 0 7.07143L0 8.64286C0 8.85124 0.101594 9.05109 0.282433 9.19844C0.463271 9.34579 0.708541 9.42857 0.964286 9.42857H26.0357C26.2915 9.42857 26.5367 9.34579 26.7176 9.19844C26.8984 9.05109 27 8.85124 27 8.64286V7.07143C27 6.86304 26.8984 6.6632 26.7176 6.51585C26.5367 6.3685 26.2915 6.28571 26.0357 6.28571ZM26.0357 0H0.964286C0.708541 0 0.463271 0.0827803 0.282433 0.23013C0.101594 0.37748 0 0.57733 0 0.785714L0 2.35714C0 2.56553 0.101594 2.76538 0.282433 2.91273C0.463271 3.06008 0.708541 3.14286 0.964286 3.14286H26.0357C26.2915 3.14286 26.5367 3.06008 26.7176 2.91273C26.8984 2.76538 27 2.56553 27 2.35714V0.785714C27 0.57733 26.8984 0.37748 26.7176 0.23013C26.5367 0.0827803 26.2915 0 26.0357 0Z" fill="white"/>
</svg>
