<svg width="34" height="33" viewBox="0 0 34 33" fill="none" xmlns="http://www.w3.org/2000/svg">
<path d="M31.0391 32.1533H6.30515C3.29342 32.1533 0.849121 29.709 0.849121 26.6973V1.96328C0.849121 1.36675 1.3438 0.87207 1.94033 0.87207C2.53685 0.87207 3.03153 1.36675 3.03153 1.96328V26.6973C3.03153 28.5014 4.50102 29.9709 6.30515 29.9709H31.0391C31.6357 29.9709 32.1303 30.4656 32.1303 31.0621C32.1303 31.6586 31.6357 32.1533 31.0391 32.1533Z" fill="#56648B"/>
<path d="M6.3053 24.878C6.05796 24.878 5.79607 24.7907 5.59238 24.6161C5.14135 24.2233 5.08315 23.5395 5.47599 23.0739L12.1542 15.2754C12.8816 14.4315 13.9292 13.9223 15.0349 13.8787C16.1407 13.8496 17.2319 14.2569 18.0175 15.0426L19.3997 16.4248C19.7635 16.7885 20.229 16.9631 20.7528 16.9631C21.2621 16.9486 21.7276 16.7158 22.0623 16.323L28.7404 8.52451C29.1333 8.07348 29.8171 8.01528 30.2827 8.40811C30.7337 8.80095 30.7919 9.48477 30.3991 9.95035L23.7209 17.7488C22.9934 18.5927 21.9459 19.1019 20.8401 19.1455C19.7198 19.1746 18.6432 18.7673 17.8575 17.9816L16.4899 16.5994C16.1261 16.2357 15.646 16.0465 15.1368 16.0611C14.6275 16.0756 14.1619 16.3084 13.8273 16.7012L7.14917 24.4997C6.91638 24.7471 6.61084 24.878 6.3053 24.878Z" fill="#56648B"/>
<path d="M25.3955 6.58828L29.0942 9.27825L32.7929 11.9682L33.1292 4.5708L25.3955 6.58828Z" fill="#56648B"/>
</svg>
