<svg width="40" height="41" viewBox="0 0 40 41" fill="none" xmlns="http://www.w3.org/2000/svg">
<path d="M32.1309 31.2H12.3305C10.4899 31.2 8.72368 30.4192 7.47802 29.062C6.23237 27.7048 5.60026 25.8828 5.749 24.0422L7.29212 5.52465C7.3479 4.9483 7.14337 4.39057 6.75294 3.96295C6.36251 3.53534 5.82336 3.31222 5.24702 3.31222H2.03062C1.26835 3.31222 0.63623 2.6801 0.63623 1.91783C0.63623 1.15556 1.26835 0.523438 2.03062 0.523438H5.26563C6.62283 0.523438 7.90564 1.09979 8.81664 2.08516C9.31862 2.64291 9.69047 3.29363 9.89498 4.01871H33.1162C34.994 4.01871 36.7231 4.76239 37.9873 6.101C39.233 7.45821 39.8651 9.22444 39.7164 11.1022L38.7124 25.0461C38.5079 28.4484 35.5332 31.2 32.1309 31.2ZM9.98794 6.7889L8.53778 24.2653C8.44482 25.3436 8.79806 26.3661 9.52315 27.1656C10.2482 27.965 11.2522 28.3927 12.3305 28.3927H32.1309C34.0644 28.3927 35.8121 26.7566 35.9608 24.823L36.9648 10.8791C37.0391 9.78221 36.6859 8.74107 35.9608 7.9788C35.2357 7.19794 34.2317 6.77029 33.1348 6.77029H9.98794V6.7889Z" fill="#0BDA5E"/>
<path d="M28.5243 40.4958C26.4792 40.4958 24.8059 38.8226 24.8059 36.7775C24.8059 34.7324 26.4792 33.0591 28.5243 33.0591C30.5694 33.0591 32.2427 34.7324 32.2427 36.7775C32.2427 38.8226 30.5694 40.4958 28.5243 40.4958ZM28.5243 35.8479C28.0037 35.8479 27.5947 36.2569 27.5947 36.7775C27.5947 37.298 28.0037 37.7071 28.5243 37.7071C29.0449 37.7071 29.4539 37.298 29.4539 36.7775C29.4539 36.2569 29.0449 35.8479 28.5243 35.8479Z" fill="#0BDA5E"/>
<path d="M13.65 40.4958C11.6049 40.4958 9.93164 38.8226 9.93164 36.7775C9.93164 34.7324 11.6049 33.0591 13.65 33.0591C15.6951 33.0591 17.3684 34.7324 17.3684 36.7775C17.3684 38.8226 15.6951 40.4958 13.65 40.4958ZM13.65 35.8479C13.1294 35.8479 12.7204 36.2569 12.7204 36.7775C12.7204 37.298 13.1294 37.7071 13.65 37.7071C14.1706 37.7071 14.5796 37.298 14.5796 36.7775C14.5796 36.2569 14.1706 35.8479 13.65 35.8479Z" fill="#0BDA5E"/>
<path d="M37.3553 14.4675H15.045C14.2828 14.4675 13.6506 13.8354 13.6506 13.0731C13.6506 12.3108 14.2828 11.6787 15.045 11.6787H37.3553C38.1175 11.6787 38.7497 12.3108 38.7497 13.0731C38.7497 13.8354 38.1175 14.4675 37.3553 14.4675Z" fill="#0BDA5E"/>
</svg>
