<svg width="42" height="41" viewBox="0 0 42 41" fill="none" xmlns="http://www.w3.org/2000/svg">
<path d="M41.0486 32.1977C41.0486 33.6641 40.638 35.0522 39.9146 36.2252C39.5041 36.929 38.9762 37.5547 38.3701 38.063C37.0016 39.2947 35.2029 40.018 33.2283 40.018C30.8431 40.018 28.712 38.9428 27.3044 37.2614C27.2653 37.2027 27.2066 37.1636 27.1675 37.105C26.9329 36.8313 26.7179 36.538 26.5419 36.2252C25.8185 35.0522 25.408 33.6641 25.408 32.1977C25.408 29.7343 26.5419 27.5251 28.3406 26.0979C29.6896 25.0226 31.3905 24.3774 33.2283 24.3774C35.1833 24.3774 36.9429 25.0813 38.3115 26.2739C38.5461 26.4498 38.7611 26.6649 38.9566 26.8799C40.247 28.2876 41.0486 30.1449 41.0486 32.1977Z" stroke="#06A2F0" stroke-miterlimit="10" stroke-linecap="round" stroke-linejoin="round"/>
<path d="M36.1403 32.1587H30.3142" stroke="#06A2F0" stroke-miterlimit="10" stroke-linecap="round" stroke-linejoin="round"/>
<path d="M33.2273 29.3042V35.1499" stroke="#06A2F0" stroke-miterlimit="10" stroke-linecap="round" stroke-linejoin="round"/>
<path d="M2.27881 11.5522L19.5421 21.5426L36.6881 11.6108" stroke="#06A2F0" stroke-linecap="round" stroke-linejoin="round"/>
<path d="M19.5422 39.2555V21.5229" stroke="#06A2F0" stroke-linecap="round" stroke-linejoin="round"/>
<path d="M0.755615 29.6794L0.755615 14.9344C0.755615 12.2364 2.69114 8.95191 5.05678 7.642L15.4969 1.85494C17.7256 0.603692 21.3621 0.603692 23.5909 1.85494L34.031 7.642C36.3966 8.95191 38.3321 12.2364 38.3321 14.9344V26.0001C38.3321 26.0979 38.3321 26.1761 38.3126 26.2738C36.944 25.0812 35.1845 24.3774 33.2294 24.3774C31.3916 24.3774 29.6907 25.0226 28.3417 26.0979C26.543 27.5251 25.4091 29.7343 25.4091 32.1977C25.4091 33.664 25.8196 35.0521 26.543 36.2252C26.719 36.538 26.934 36.8312 27.1687 37.105L23.5909 39.0796C21.3621 40.3308 17.7256 40.3308 15.4969 39.0796L0.755615 29.6794Z" stroke="#06A2F0" stroke-linecap="round" stroke-linejoin="round"/>
</svg>
