<svg width="52" height="51" viewBox="0 0 52 51" fill="none" xmlns="http://www.w3.org/2000/svg">
<path opacity="0.5" d="M25.5384 15.9558C24.2934 15.9558 23.0803 16.2065 21.9311 16.6454C20.7819 17.0843 19.7604 17.8058 18.8665 18.6522C17.9727 19.4987 17.3023 20.5331 16.8234 21.6617C16.3446 22.7903 16.1211 23.982 16.1211 25.2047C16.1211 26.4273 16.3765 27.6183 16.8234 28.7469C17.3023 29.8755 18.0046 30.8786 18.8665 31.7564C19.7284 32.6342 20.7819 33.293 21.9311 33.7632C23.0803 34.2335 24.2934 34.4528 25.5384 34.4528C26.7834 34.4528 27.9965 34.2021 29.1457 33.7632C30.295 33.3243 31.3165 32.6028 32.2103 31.7564C33.1042 30.9099 33.7746 29.8755 34.2534 28.7469C34.7322 27.6183 34.9557 26.4273 34.9557 25.2047C34.9557 23.982 34.7003 22.7903 34.2534 21.6617C33.7746 20.5331 33.0723 19.53 32.2103 18.6522C31.3484 17.7744 30.295 17.1156 29.1457 16.6454C27.9965 16.1751 26.7515 15.9558 25.5384 15.9558ZM25.5384 12.0056C32.9445 12.0056 38.978 17.9314 38.978 25.2047C38.978 32.4779 32.9445 38.403 25.5384 38.403C18.1323 38.403 12.0988 32.4779 12.0988 25.2047C12.0669 17.9314 18.1003 12.0056 25.5384 12.0056ZM38.978 9.34129C40.4784 9.34129 41.6595 10.5321 41.6595 11.9742C41.6595 13.4163 40.4464 14.6079 38.978 14.6079C37.5095 14.6079 36.2965 13.4163 36.2965 11.9742C36.2645 10.5321 37.4776 9.34129 38.978 9.34129ZM15.4507 0.124512C6.92731 0.124512 0 6.92702 0 15.2975V35.1111C0 43.4816 6.92731 50.2848 15.4507 50.2848H35.6261C44.1495 50.2848 51.0768 43.4816 51.0768 35.1111V15.2975C51.0768 6.92702 44.1495 0.124512 35.6261 0.124512H15.4507Z" fill="white"/>
</svg>
