<svg width="31" height="31" viewBox="0 0 31 31" fill="none" xmlns="http://www.w3.org/2000/svg">
<path d="M18.4237 8.09405C20.0286 6.87093 20.3383 4.57817 19.1151 2.97313C17.8919 1.3681 15.5992 1.05858 13.9942 2.2817C12.3891 3.50489 12.0796 5.79757 13.3027 7.4026C14.5259 9.00764 16.8186 9.31724 18.4237 8.09405Z" fill="white"/>
<path d="M7.54512 16.3844C9.15015 15.1613 9.45972 12.8685 8.23655 11.2635C7.01339 9.65847 4.72068 9.34891 3.11564 10.5721C1.51061 11.7952 1.20104 14.0879 2.42421 15.693C3.64738 17.298 5.94009 17.6076 7.54512 16.3844Z" fill="white"/>
<path d="M27.6274 20.1711C29.2324 18.948 29.542 16.6553 28.3188 15.0502C27.0956 13.4452 24.8029 13.1357 23.1979 14.3588C21.5928 15.582 21.2833 17.8746 22.5065 19.4797C23.7297 21.0848 26.0223 21.3943 27.6274 20.1711Z" fill="white"/>
<path d="M16.7488 28.4615C18.3539 27.2383 18.6635 24.9456 17.4403 23.3406C16.2171 21.7355 13.9244 21.426 12.3194 22.6491C10.7143 23.8723 10.4048 26.165 11.6279 27.77C12.8511 29.3751 15.1438 29.6846 16.7488 28.4615Z" fill="white"/>
</svg>
