<svg width="31" height="31" viewBox="0 0 31 31" fill="none" xmlns="http://www.w3.org/2000/svg">
<path d="M18.2143 8.02706C19.8193 6.80394 20.1289 4.51119 18.9057 2.90615C17.6826 1.30112 15.3898 0.991592 13.7848 2.21471C12.1798 3.4379 11.8702 5.73058 13.0934 7.33561C14.3166 8.94066 16.6092 9.25025 18.2143 8.02706Z" fill="white"/>
<path d="M7.33565 16.3175C8.94068 15.0943 9.25025 12.8016 8.02708 11.1966C6.80392 9.59152 4.5112 9.28195 2.90617 10.5051C1.30114 11.7283 0.991572 14.021 2.21473 15.626C3.4379 17.2311 5.73062 17.5406 7.33565 16.3175Z" fill="white"/>
<path d="M27.4179 20.1042C29.0229 18.8811 29.3325 16.5884 28.1094 14.9833C26.8862 13.3782 24.5934 13.0687 22.9884 14.2919C21.3834 15.515 21.0738 17.8077 22.297 19.4128C23.5202 21.0178 25.8128 21.3274 27.4179 20.1042Z" fill="white"/>
<path d="M16.5393 28.3945C18.1443 27.1713 18.4539 24.8786 17.2307 23.2736C16.0075 21.6685 13.7148 21.359 12.1098 22.5821C10.5048 23.8053 10.1952 26.098 11.4183 27.703C12.6415 29.3081 14.9342 29.6176 16.5393 28.3945Z" fill="white"/>
</svg>
