<svg width="53" height="51" viewBox="0 0 53 51" fill="none" xmlns="http://www.w3.org/2000/svg">
<path opacity="0.5" d="M42.3011 40.7229H42.2692H36.2038V30.691C36.2038 28.277 35.8846 25.1733 32.5327 25.1733C29.085 25.1733 28.5104 27.8066 28.5104 30.5341V40.7229H22.445V20.0314H28.1273V22.822H28.2869C29.1808 21.2232 31.2557 20.0001 34.48 20.0001C41.1519 20.0001 42.333 23.7934 42.333 29.4051V40.7229H42.3011ZM14.2727 16.8337C12.1977 16.8337 10.5377 15.2037 10.5377 13.1659C10.5377 11.1282 12.1977 9.49819 14.2727 9.49819C16.3477 9.49819 18.0077 11.1282 18.0077 13.1659C17.9439 15.2037 16.2838 16.8337 14.2727 16.8337ZM17.9438 40.7229H10.6654V20.0314H17.9438V40.7229ZM39.1726 0.124512H13.73C6.67502 0.124512 0.928894 5.76758 0.928894 12.696V37.7448C0.928894 44.6418 6.67502 50.2848 13.73 50.2848H39.2046C46.2596 50.2848 52.0057 44.6418 52.0057 37.7134V12.7266C51.9738 5.76684 46.2276 0.124512 39.1726 0.124512Z" fill="white"/>
</svg>
