<svg width="28" height="28" viewBox="0 0 28 28" fill="none" xmlns="http://www.w3.org/2000/svg">
<path d="M17.7734 27.0647H17.6021C11.7517 27.0647 8.9319 24.7588 8.44436 19.5936C8.39166 19.0534 8.78696 18.5658 9.34037 18.5131C9.86744 18.4604 10.3681 18.8689 10.4209 19.4091C10.803 23.5466 12.7531 25.0883 17.6153 25.0883H17.7866C23.1494 25.0883 25.0469 23.1908 25.0469 17.828V9.23679C25.0469 3.87392 23.1494 1.97649 17.7866 1.97649H17.6153C12.7268 1.97649 10.7766 3.5445 10.4209 7.76101C10.355 8.30125 9.89379 8.70973 9.34037 8.65702C8.78696 8.61749 8.39166 8.12996 8.43119 7.58972C8.87919 2.34543 11.7122 0 17.6021 0H17.7734C24.2431 0 27.0102 2.76708 27.0102 9.23679V17.828C27.0102 24.2977 24.2431 27.0647 17.7734 27.0647Z" fill="white"/>
<path d="M17.4553 14.5207H2.46041C1.92017 14.5207 1.47217 14.0727 1.47217 13.5324C1.47217 12.9922 1.92017 12.5442 2.46041 12.5442H17.4553C17.9956 12.5442 18.4436 12.9922 18.4436 13.5324C18.4436 14.0727 17.9956 14.5207 17.4553 14.5207Z" fill="white"/>
<path d="M5.39911 18.9348C5.14875 18.9348 4.8984 18.8426 4.70075 18.6449L0.286591 14.2308C-0.0955303 13.8487 -0.0955303 13.2162 0.286591 12.8341L4.70075 8.41989C5.08287 8.03777 5.71535 8.03777 6.09747 8.41989C6.47959 8.80201 6.47959 9.43449 6.09747 9.81661L2.38167 13.5324L6.09747 17.2482C6.47959 17.6303 6.47959 18.2628 6.09747 18.6449C5.91299 18.8426 5.64946 18.9348 5.39911 18.9348Z" fill="white"/>
</svg>
