<svg width="22" height="22" viewBox="0 0 22 22" fill="none" xmlns="http://www.w3.org/2000/svg">
<path d="M13.8251 21.0587H13.6919C9.1411 21.0587 6.94769 19.265 6.56846 15.2472C6.52746 14.827 6.83495 14.4477 7.26543 14.4067C7.67541 14.3657 8.06489 14.6835 8.10589 15.1037C8.40313 18.3221 9.92006 19.5213 13.7021 19.5213H13.8354C18.007 19.5213 19.4829 18.0453 19.4829 13.8738V7.19104C19.4829 3.01947 18.007 1.54354 13.8354 1.54354H13.7021C9.89956 1.54354 8.38263 2.76323 8.10589 6.04309C8.05464 6.46332 7.69591 6.78106 7.26543 6.74006C6.83495 6.70931 6.52746 6.33008 6.55821 5.90985C6.90669 1.83052 9.11035 0.00610352 13.6919 0.00610352H13.8251C18.8577 0.00610352 21.0101 2.15851 21.0101 7.19104V13.8738C21.0101 18.9063 18.8577 21.0587 13.8251 21.0587Z" fill="#1D1D1F"/>
<path d="M13.5779 11.3011H1.91392C1.49369 11.3011 1.1452 10.9526 1.1452 10.5324C1.1452 10.1122 1.49369 9.76367 1.91392 9.76367H13.5779C13.9981 9.76367 14.3466 10.1122 14.3466 10.5324C14.3466 10.9526 13.9981 11.3011 13.5779 11.3011Z" fill="#1D1D1F"/>
<path d="M4.19982 14.7348C4.00507 14.7348 3.81033 14.6631 3.65659 14.5094L0.222989 11.0758C-0.0742482 10.7785 -0.0742482 10.2865 0.222989 9.9893L3.65659 6.55569C3.95383 6.25845 4.4458 6.25845 4.74304 6.55569C5.04028 6.85293 5.04028 7.34491 4.74304 7.64214L1.85267 10.5325L4.74304 13.4229C5.04028 13.7201 5.04028 14.2121 4.74304 14.5094C4.59955 14.6631 4.39456 14.7348 4.19982 14.7348Z" fill="#1D1D1F"/>
</svg>
