<svg width="17" height="10" viewBox="0 0 17 10" fill="none" xmlns="http://www.w3.org/2000/svg">
<path d="M16.4993 0.501339C15.469 0.13817 14.4378 2.68473e-08 13.4072 2.68473e-08C10.1356 -0.000223187 6.86417 1.39152 3.59252 1.39152C2.77202 1.39152 1.95205 1.30402 1.13154 1.08527C1.03937 1.06071 0.946938 1.04911 0.856627 1.04911C0.399494 1.04911 0 1.34643 0 1.75915V8.84085C0 9.12277 0.192044 9.38996 0.50043 9.49844C1.53077 9.86183 2.56191 10 3.59252 10C6.86417 10 10.1358 8.60826 13.4075 8.60826C14.228 8.60826 15.048 8.69576 15.8685 8.91451C15.9606 8.93906 16.0531 8.95067 16.1434 8.95067C16.6005 8.95067 17 8.65335 17 8.24063V1.15915C16.9997 0.877009 16.8077 0.610045 16.4993 0.501339ZM1.27498 2.23705C1.80941 2.34955 2.36721 2.40603 2.94095 2.43638C2.78477 3.09241 2.0984 3.58683 1.27498 3.58683V2.23705ZM1.27498 8.59866V7.53214C2.18792 7.53214 2.92661 8.14085 2.96725 8.90268C2.36881 8.86228 1.80941 8.76183 1.27498 8.59866ZM8.49987 7.14286C7.32609 7.14286 6.3749 6.18326 6.3749 5C6.3749 3.81652 7.32635 2.85714 8.49987 2.85714C9.67338 2.85714 10.6248 3.81652 10.6248 5C10.6248 6.18371 9.67311 7.14286 8.49987 7.14286ZM15.7248 7.76295C15.2594 7.66496 14.7762 7.61004 14.2819 7.57455C14.4378 6.99241 15.0124 6.55045 15.7248 6.47455V7.76295ZM15.7248 2.49263C14.9043 2.40536 14.2676 1.82969 14.2423 1.11875C14.7613 1.16719 15.2541 1.25781 15.7248 1.40134V2.49263Z" fill="white"/>
</svg>
