<svg width="14" height="8" viewBox="0 0 14 8" fill="none" xmlns="http://www.w3.org/2000/svg">
<path d="M13.5877 0.401071C12.7391 0.110536 11.89 2.14778e-08 11.0412 2.14778e-08C8.34693 -0.00017855 5.65285 1.11321 2.95855 1.11321C2.28284 1.11321 1.60757 1.04321 0.93186 0.868214C0.855955 0.848572 0.779832 0.839286 0.705458 0.839286C0.328995 0.839286 0 1.07714 0 1.40732V7.07268C0 7.29821 0.158154 7.51196 0.412119 7.59875C1.26064 7.88946 2.10981 8 2.95855 8C5.65285 8 8.34715 6.88661 11.0415 6.88661C11.7172 6.88661 12.3924 6.95661 13.0681 7.13161C13.144 7.15125 13.2202 7.16054 13.2945 7.16054C13.671 7.16054 14 6.92268 14 6.5925V0.927321C13.9998 0.701607 13.8416 0.488036 13.5877 0.401071ZM1.04998 1.78964C1.4901 1.87964 1.94947 1.92482 2.42196 1.94911C2.29334 2.47393 1.7281 2.86946 1.04998 2.86946V1.78964ZM1.04998 6.87893V6.02571C1.80182 6.02571 2.41015 6.51268 2.44362 7.12214C1.95078 7.08982 1.4901 7.00946 1.04998 6.87893ZM6.99989 5.71429C6.03325 5.71429 5.24992 4.94661 5.24992 4C5.24992 3.05321 6.03347 2.28571 6.99989 2.28571C7.96631 2.28571 8.74986 3.05321 8.74986 4C8.74986 4.94696 7.96609 5.71429 6.99989 5.71429ZM12.9498 6.21036C12.5666 6.13196 12.1687 6.08804 11.7616 6.05964C11.89 5.59393 12.3631 5.24036 12.9498 5.17964V6.21036ZM12.9498 1.99411C12.2741 1.92429 11.7498 1.46375 11.729 0.895C12.1564 0.93375 12.5622 1.00625 12.9498 1.12107V1.99411Z" fill="white" fill-opacity="0.4"/>
</svg>
