<svg width="18" height="18" viewBox="0 0 18 18" fill="none" xmlns="http://www.w3.org/2000/svg">
<path d="M17 13.4215C17 14.0038 16.837 14.555 16.5497 15.0208C16.3867 15.3003 16.1771 15.5487 15.9364 15.7506C15.393 16.2397 14.6787 16.5269 13.8946 16.5269C12.9475 16.5269 12.1013 16.0999 11.5423 15.4323C11.5268 15.409 11.5035 15.3935 11.488 15.3702C11.3948 15.2615 11.3094 15.145 11.2395 15.0208C10.9523 14.555 10.7892 14.0038 10.7892 13.4215C10.7892 12.4433 11.2395 11.5661 11.9538 10.9993C12.4894 10.5724 13.1649 10.3162 13.8946 10.3162C14.671 10.3162 15.3697 10.5956 15.9131 11.0692C16.0063 11.1391 16.0917 11.2245 16.1693 11.3099C16.6817 11.8689 17 12.6064 17 13.4215Z" stroke="rgb(201, 197, 197)" stroke-miterlimit="10" stroke-linecap="round" stroke-linejoin="round"/>
<path d="M15.0512 13.406H12.7377" stroke="rgb(201, 197, 197)" stroke-miterlimit="10" stroke-linecap="round" stroke-linejoin="round"/>
<path d="M13.8947 12.2726V14.5938" stroke="rgb(201, 197, 197)" stroke-miterlimit="10" stroke-linecap="round" stroke-linejoin="round"/>
<path d="M1.60498 5.2233L8.4601 9.19039L15.2686 5.24656" stroke="rgb(201, 197, 197)" stroke-linecap="round" stroke-linejoin="round"/>
<path d="M8.46021 16.2242V9.18271" stroke="rgb(201, 197, 197)" stroke-linecap="round" stroke-linejoin="round"/>
<path d="M1 12.4215L1 6.5664C1 5.49504 1.76858 4.1908 2.70796 3.67064L6.85365 1.37265C7.73866 0.875785 9.18267 0.875785 10.0677 1.37265L14.2134 3.67064C15.1528 4.1908 15.9213 5.49504 15.9213 6.5664V10.9605C15.9213 10.9993 15.9213 11.0304 15.9136 11.0692C15.3701 10.5956 14.6714 10.3161 13.8951 10.3161C13.1653 10.3161 12.4899 10.5723 11.9542 10.9993C11.24 11.5661 10.7897 12.4433 10.7897 13.4215C10.7897 14.0038 10.9527 14.555 11.24 15.0208C11.3099 15.145 11.3953 15.2615 11.4884 15.3702L10.0677 16.1543C9.18267 16.6511 7.73866 16.6511 6.85365 16.1543L1 12.4215Z" stroke="rgb(201, 197, 197)" stroke-linecap="round" stroke-linejoin="round"/>
</svg>
