<svg width="16" height="18" viewBox="0 0 16 18" fill="none" xmlns="http://www.w3.org/2000/svg">
<path d="M4.39941 5H11.9994V3.4C11.9994 1.8 11.3994 1 9.59941 1H6.79941C4.99941 1 4.39941 1.8 4.39941 3.4V5Z" stroke="#373636" stroke-width="1.2" stroke-miterlimit="10" stroke-linecap="round" stroke-linejoin="round"/>
<path d="M11.4 11.3999V14.5999C11.4 16.1999 10.6 16.9999 9 16.9999H7.4C5.8 16.9999 5 16.1999 5 14.5999V11.3999H11.4Z" stroke="#373636" stroke-width="1.2" stroke-miterlimit="10" stroke-linecap="round" stroke-linejoin="round"/>
<path d="M15.4 7.4V11.4C15.4 13 14.6 13.8 13 13.8H11.4V11.4H5V13.8H3.4C1.8 13.8 1 13 1 11.4V7.4C1 5.8 1.8 5 3.4 5H13C14.6 5 15.4 5.8 15.4 7.4Z" stroke="#373636" stroke-width="1.2" stroke-miterlimit="10" stroke-linecap="round" stroke-linejoin="round"/>
<path d="M12.2002 11.3999H11.2322H4.2002" stroke="#373636" stroke-width="1.2" stroke-miterlimit="10" stroke-linecap="round" stroke-linejoin="round"/>
<path d="M4.2002 8.2002H6.60019" stroke="#373636" stroke-width="1.2" stroke-miterlimit="10" stroke-linecap="round" stroke-linejoin="round"/>
</svg>
