<svg width="25" height="25" viewBox="0 0 25 25" fill="none" xmlns="http://www.w3.org/2000/svg">
<path d="M12.5014 19.1873C13.6266 19.1873 14.5389 18.2752 14.5389 17.1498C14.5389 16.0246 13.6266 15.1123 12.5014 15.1123C11.3761 15.1123 10.4639 16.0246 10.4639 17.1498C10.4639 18.2752 11.3761 19.1873 12.5014 19.1873Z" fill="white"/>
<path d="M20.35 9.4125V7.85C20.35 4.475 19.5375 0 12.5 0C5.4625 0 4.65 4.475 4.65 7.85V9.4125C1.15 9.85 0 11.625 0 15.9875V18.3125C0 23.4375 1.5625 25 6.6875 25H18.3125C23.4375 25 25 23.4375 25 18.3125V15.9875C25 11.625 23.85 9.85 20.35 9.4125ZM12.5 20.925C10.4125 20.925 8.725 19.225 8.725 17.15C8.725 15.0625 10.425 13.375 12.5 13.375C14.575 13.375 16.275 15.075 16.275 17.15C16.275 19.2375 14.5875 20.925 12.5 20.925ZM6.6875 9.3C6.5875 9.3 6.5 9.3 6.4 9.3V7.85C6.4 4.1875 7.4375 1.75 12.5 1.75C17.5625 1.75 18.6 4.1875 18.6 7.85V9.3125C18.5 9.3125 18.4125 9.3125 18.3125 9.3125H6.6875V9.3Z" fill="white"/>
</svg>
