<svg width="14" height="14" viewBox="0 0 14 14" fill="none" xmlns="http://www.w3.org/2000/svg">
<path d="M10.9605 10.7204H4.06974C3.42919 10.7204 2.81452 10.4486 2.38102 9.97629C1.94752 9.50397 1.72754 8.86989 1.7793 8.22934L2.31633 1.78504C2.33574 1.58446 2.26456 1.39036 2.12868 1.24155C1.99281 1.09273 1.80518 1.01508 1.60461 1.01508H0.485264C0.219986 1.01508 0 0.795097 0 0.52982C0 0.264542 0.219986 0.0445557 0.485264 0.0445557H1.61108C2.08341 0.0445557 2.52984 0.245131 2.84687 0.588051C3.02157 0.782157 3.15098 1.00861 3.22215 1.26095H11.3034C11.9569 1.26095 12.5586 1.51976 12.9986 1.98561C13.4321 2.45793 13.6521 3.0726 13.6003 3.72609L13.2509 8.57873C13.1798 9.76277 12.1445 10.7204 10.9605 10.7204ZM3.2545 2.22501L2.74983 8.30698C2.71748 8.68225 2.84041 9.03811 3.09275 9.31633C3.34509 9.59455 3.69447 9.74336 4.06974 9.74336H10.9605C11.6334 9.74336 12.2416 9.17399 12.2933 8.50109L12.6427 3.64846C12.6686 3.26671 12.5457 2.90438 12.2933 2.63911C12.041 2.36736 11.6916 2.21853 11.3099 2.21853H3.2545V2.22501Z" fill="rgb(201, 197, 197)"/>
<path d="M9.70529 13.9554C8.99357 13.9554 8.41125 13.3731 8.41125 12.6614C8.41125 11.9497 8.99357 11.3674 9.70529 11.3674C10.417 11.3674 10.9993 11.9497 10.9993 12.6614C10.9993 13.3731 10.417 13.9554 9.70529 13.9554ZM9.70529 12.3379C9.52413 12.3379 9.38178 12.4802 9.38178 12.6614C9.38178 12.8426 9.52413 12.9849 9.70529 12.9849C9.88646 12.9849 10.0288 12.8426 10.0288 12.6614C10.0288 12.4802 9.88646 12.3379 9.70529 12.3379Z" fill="rgb(201, 197, 197)"/>
<path d="M4.52914 13.9554C3.81742 13.9554 3.23511 13.3731 3.23511 12.6614C3.23511 11.9497 3.81742 11.3674 4.52914 11.3674C5.24086 11.3674 5.82318 11.9497 5.82318 12.6614C5.82318 13.3731 5.24086 13.9554 4.52914 13.9554ZM4.52914 12.3379C4.34798 12.3379 4.20564 12.4802 4.20564 12.6614C4.20564 12.8426 4.34798 12.9849 4.52914 12.9849C4.71031 12.9849 4.85265 12.8426 4.85265 12.6614C4.85265 12.4802 4.71031 12.3379 4.52914 12.3379Z" fill="rgb(201, 197, 197)"/>
<path d="M12.7786 4.89719H5.01438C4.7491 4.89719 4.52911 4.67721 4.52911 4.41193C4.52911 4.14665 4.7491 3.92667 5.01438 3.92667H12.7786C13.0439 3.92667 13.2639 4.14665 13.2639 4.41193C13.2639 4.67721 13.0439 4.89719 12.7786 4.89719Z" fill="rgb(201, 197, 197)"/>
</svg>



