<svg width="232" height="138" viewBox="0 0 232 138" fill="none" xmlns="http://www.w3.org/2000/svg">
<path d="M183.468 2H229.8V136H183.468" stroke="#FCFCFC" stroke-width="3"/>
<path d="M49.6192 136L2 136L2.00002 1.99999L49.6193 2" stroke="#FCFCFC" stroke-width="3"/>
<path d="M201.9 26L201.9 115L195.924 115L195.924 26L201.9 26ZM192.983 26.0633L192.983 115L189.947 115L189.947 26.0633L192.983 26.0633ZM183.97 26.0633L183.97 115L181.03 115L181.03 26.0633L183.97 26.0633ZM169.077 26.0633L169.077 115L166.136 115L166.136 26.0633L169.077 26.0633ZM157.123 26.0633L157.123 115L151.242 115L151.242 26.0633L157.123 26.0633ZM142.229 26.0633L142.229 115L139.289 115L139.289 26.0633L142.229 26.0633ZM136.253 26.0633L136.253 115L133.312 115L133.312 26.0633L136.253 26.0633ZM130.276 26.0633L130.276 115L127.336 115L127.336 26.0633L130.276 26.0633ZM118.418 26.0633L118.418 115L112.441 115L112.441 26.0633L118.418 26.0633ZM103.524 26.0633L103.524 115L97.5474 115L97.5474 26.0633L103.524 26.0633ZM91.5711 26.0633L91.5711 115L85.5942 115L85.5942 26.0633L91.5711 26.0633ZM79.6177 26.0633L79.6177 115L73.6408 115L73.6408 26.0633L79.6177 26.0633ZM70.7003 26.0633L70.7003 115L64.7237 115L64.7237 26.0633L70.7003 26.0633ZM55.7114 26.0633L55.7114 115L46.7941 115L46.7941 26.0633L55.7114 26.0633ZM43.8533 26.0633L43.8533 115L40.8175 115L40.8175 26.0633L43.8533 26.0633ZM37.8767 26L37.8767 115L31.9001 115L31.9001 26L37.8767 26Z" fill="white"/>
</svg>
