<svg width="14" height="14" viewBox="0 0 14 14" fill="none" xmlns="http://www.w3.org/2000/svg">
<path d="M13.0438 13.5153H2.35732C1.05608 13.5153 0 12.4592 0 11.158V0.471463C0 0.21373 0.21373 0 0.471463 0C0.729197 0 0.942927 0.21373 0.942927 0.471463V11.158C0.942927 11.9375 1.57783 12.5724 2.35732 12.5724H13.0438C13.3016 12.5724 13.5153 12.7861 13.5153 13.0438C13.5153 13.3016 13.3016 13.5153 13.0438 13.5153Z" fill="#FFFFFF"/>
<path d="M2.35722 10.3721C2.25035 10.3721 2.1372 10.3344 2.04919 10.2589C1.85432 10.0892 1.82918 9.79375 1.9989 9.59259L4.88426 6.2232C5.19857 5.8586 5.65116 5.63859 6.12891 5.61973C6.60666 5.60715 7.07812 5.78317 7.41758 6.12262L8.01476 6.71981C8.17192 6.87696 8.37307 6.9524 8.59938 6.9524C8.81939 6.94611 9.02055 6.84553 9.16513 6.6758L12.0505 3.30643C12.2202 3.11155 12.5157 3.08641 12.7168 3.25614C12.9117 3.42586 12.9368 3.72131 12.7671 3.92247L9.88176 7.29185C9.56745 7.65645 9.11484 7.87646 8.63709 7.89532C8.15306 7.90789 7.68788 7.73188 7.34843 7.39243L6.75753 6.79524C6.60037 6.63809 6.39293 6.55637 6.17291 6.56265C5.9529 6.56894 5.75174 6.66952 5.60716 6.83924L2.72181 10.2086C2.62124 10.3155 2.48923 10.3721 2.35722 10.3721Z" fill="#FFFFFF"/>
<path d="M10.6053 2.46972L12.2033 3.63194L13.8014 4.79417L13.9467 1.59805L10.6053 2.46972Z" fill="#FFFFFF"/>
</svg>