<svg width="21" height="21" viewBox="0 0 21 21" fill="none" xmlns="http://www.w3.org/2000/svg">
<path d="M19.5481 20.2547H3.5328C1.58269 20.2547 0 18.672 0 16.7219V0.70656C0 0.320307 0.320307 0 0.70656 0C1.09281 0 1.41312 0.320307 1.41312 0.70656V16.7219C1.41312 17.8901 2.36462 18.8416 3.5328 18.8416H19.5481C19.9344 18.8416 20.2547 19.1619 20.2547 19.5481C20.2547 19.9344 19.9344 20.2547 19.5481 20.2547Z" fill="#89969F"/>
<path d="M3.53256 15.5442C3.37241 15.5442 3.20284 15.4876 3.07094 15.3746C2.7789 15.1202 2.74122 14.6775 2.99558 14.376L7.31972 9.32645C7.79076 8.78005 8.46904 8.45032 9.18502 8.42206C9.901 8.40321 10.6076 8.667 11.1163 9.17572L12.0113 10.0707C12.2468 10.3062 12.5482 10.4193 12.8874 10.4193C13.2171 10.4098 13.5186 10.2591 13.7353 10.0047L18.0594 4.95522C18.3138 4.66318 18.7565 4.62549 19.058 4.87986C19.3501 5.13422 19.3877 5.57699 19.1334 5.87846L14.8092 10.928C14.3382 11.4744 13.6599 11.8041 12.9439 11.8324C12.2185 11.8512 11.5214 11.5874 11.0127 11.0787L10.1271 10.1837C9.89158 9.94822 9.58069 9.82575 9.25097 9.83517C8.92124 9.8446 8.61977 9.99533 8.40309 10.2497L4.07897 15.2992C3.92824 15.4594 3.7304 15.5442 3.53256 15.5442Z" fill="#89969F"/>
<path d="M15.8936 3.70135L18.2885 5.44311L20.6834 7.18488L20.9011 2.39502L15.8936 3.70135Z" fill="#89969F"/>
</svg>
