<svg width="52" height="51" viewBox="0 0 52 51" fill="none" xmlns="http://www.w3.org/2000/svg">
<path opacity="0.5" fill-rule="evenodd" clip-rule="evenodd" d="M31.4739 25.4236L23.94 29.7503V21.1604L31.4739 25.4236ZM41.3381 25.2047C41.3381 19.8124 41.1465 17.6176 39.8058 16.2382C38.4331 14.8588 37.0285 14.7334 26.43 14.7334C15.8316 14.7334 14.427 14.8274 13.0543 16.2382C11.6816 17.6176 11.522 19.8124 11.522 25.2047C11.522 30.5969 11.7135 32.791 13.0543 34.1704C14.427 35.5498 15.8316 35.6752 26.43 35.6752C37.0285 35.6752 38.4331 35.5812 39.8058 34.1704C41.1785 32.7596 41.3381 30.5656 41.3381 25.2047ZM16.885 0.124512C8.07428 0.124512 0.923523 7.14696 0.923523 15.7996V34.6097C0.923523 43.2624 8.07428 50.2848 16.885 50.2848H36.0388C44.8496 50.2848 52.0003 43.2624 52.0003 34.6097V15.7996C52.0003 7.14696 44.8496 0.124512 36.0388 0.124512H16.885Z" fill="white"/>
</svg>
